<?xml version="1.0" encoding="UTF-8"?><svg id="Camada_2" xmlns="http://www.w3.org/2000/svg" viewBox="0 0 473.92 59.66"><defs><style>.cls-1{fill:#fff;}</style></defs><g id="Camada_1-2"><g><path class="cls-1" d="M128.06,23.09c-1.21-5.43-3.88-10.39-7.71-14.35-.34-.35-.69-.69-1.05-1-.1-.1-.2-.19-.3-.29-13.07-12.26-30.63,4.01-40.9,12.37-10.02,8.16-19.58,16.98-28.68,26.15,2.73,1.33,5.57,2.65,8.51,3.9,7.27,3.49,13.93,6.23,20.29,7.72,5.18,1.21,10.17,1.9,14.83,2.04,5.2,.15,10.15-.37,14.71-1.55,4.97-1.29,9.26-3.75,12.76-7.32,3.22-3.28,5.64-7.44,7-12.02,1.5-5.07,1.69-10.48,.54-15.64Z"/><path class="cls-1" d="M77.23,15.66c.11-.11,.22-.23,.33-.34-.76-.38-1.54-.77-2.32-1.15-1.66-.81-3.35-1.6-5.08-2.37-6.99-3.45-13.43-6.37-19.58-7.81-5.18-1.21-10.17-1.9-14.83-2.04-5.2-.15-10.15,.37-14.71,1.55-4.97,1.29-9.26,3.75-12.76,7.32-3.22,3.28-5.64,7.44-7,12.02-1.5,5.07-1.69,10.48-.54,15.64,1.21,5.43,3.88,10.39,7.71,14.35,1.92,1.97,4.02,3.39,6.31,4.27,4.39,1.95,9.13,1.34,13.81-.59,1.27-.5,2.54-1.12,3.78-1.83,2.32-1.28,4.6-2.81,6.78-4.43,1.9-1.41,3.73-2.89,5.45-4.33,2.1-1.76,4.04-3.46,5.76-4.91,9.4-7.95,18.35-16.49,26.9-25.36Z"/></g><g><path class="cls-1" d="M216.68,29.63c-.31,5.26-1.65,9.89-4.52,14.02-1.03,1.48-2.26,2.77-3.77,3.8-4.8,3.27-12.44,2.02-13.99-5.76-.81-4.09-.06-8.04,1.29-11.91,.88-2.52,2.13-4.86,3.91-6.89,2.11-2.41,4.65-4.07,8-4.12,4.57-.06,7.64,2.35,8.67,6.77,.33,1.44,.51,2.9,.41,4.08Zm10.64-5.31c-1.22-6.31-5-10.87-11.32-12.75-8.9-2.63-16.93-.58-23.77,5.55-5.45,4.88-8.19,11.18-9,18.34-.11,.95-.16,1.9-.25,3.06-.5-.87-.85-1.59-1.3-2.25-1.66-2.46-4.03-4.15-6.55-5.63-1.84-1.08-3.8-1.98-5.42-3.42-1.81-1.63-2.25-4.12-1-5.98,1.07-1.59,2.68-2.39,4.52-2.64,3.43-.48,6.71,.14,9.83,1.58,.49,.22,.64,.14,.8-.33,.57-1.69,1.17-3.37,1.75-5.05,.76-2.17,.77-2.19-1.45-2.94-5.26-1.77-10.59-1.85-15.89-.28-3.72,1.1-6.93,3.08-9.04,6.42-3.04,4.82-3.24,10.82,1.81,15.34,1.79,1.6,3.82,2.82,5.89,3.98,1.46,.82,2.88,1.69,4,2.95,1.85,2.08,1.73,5.3-.31,7.18-1.65,1.52-3.7,2-5.88,1.96-3.57-.06-6.89-1.12-10.07-2.63-.49-.23-.69-.26-.88,.33-.62,1.92-1.32,3.82-1.99,5.72-.48,1.37-.5,1.41,.83,2.02,6.72,3.12,13.63,3.62,20.63,1.09,4.85-1.75,8.31-4.96,9.69-10.05,.18-.66,.29-1.35,.45-2.08,.1,.11,.15,.14,.17,.18,.07,.2,.11,.4,.17,.6,1.1,3.85,3.09,7.12,6.4,9.51,4.35,3.13,9.27,3.87,14.46,3.24,6.44-.78,11.85-3.61,16.01-8.52,6.04-7.11,8.44-15.35,6.68-24.5Z"/><path class="cls-1" d="M354.69,48.1c-.92,.1-1.85,.17-2.78,.24-2.88,.2-4.41-1.21-4.44-4.05-.01-1.43,.11-2.84,.38-4.23,1.3-6.59,2.64-13.17,3.95-19.76,.1-.51,.35-.58,.81-.58,2.95,.02,5.9,0,8.85,.02,.54,0,.74-.17,.82-.68,.41-2.3,.82-4.6,1.31-6.88,.14-.66-.05-.72-.63-.72-2.92,.02-5.85,0-8.77,.01-.52,0-.68-.07-.56-.66,.68-3.4,1.33-6.8,1.97-10.2,.03-.18,.35-.52-.15-.6-.1,.05-.19,.1-.29,.12-3.3,.92-6.58,1.84-9.88,2.74-.5,.14-.78,.31-.88,.9-.4,2.38-.91,4.74-1.34,7.12-.09,.48-.27,.6-.72,.58-1.01-.04-2.02-.07-3.03-.06-2.55,0-5.1,.03-7.65,.07-.66,.01-.98-.03-.8-.87,.74-3.52,1.4-7.05,2.08-10.58-3.62,.99-7.25,1.99-10.87,2.98-.38,.11-.38,.37-.43,.66-.46,2.4-.94,4.79-1.37,7.19-.09,.51-.28,.63-.76,.62-1.65-.03-3.3,.01-4.94-.01-.5,0-.67,.13-.76,.63-.41,2.33-.87,4.64-1.34,6.96-.1,.51-.02,.7,.55,.69,1.59-.03,3.19,.02,4.78-.03,.61-.01,.77,.12,.65,.74-1.21,5.97-2.41,11.93-3.59,17.9-.68,3.45-1.34,6.91-1.2,10.46,.15,3.97,2.58,7.06,6.44,8.14,3.55,1,7.09,.66,10.62-.11,.56-.12,.7-.47,.76-.95,.31-2.44,.61-4.89,.95-7.34,.06-.44-.11-.49-.47-.45-.98,.09-1.95,.19-2.94,.24-2.87,.14-4.32-1.23-4.35-4.07-.01-1.45,.12-2.89,.4-4.3,1.29-6.54,2.62-13.07,3.92-19.61,.1-.5,.3-.66,.83-.65,3.59,.03,7.18,.03,10.76,0,.71,0,.76,.24,.64,.81-1.08,5.37-2.15,10.75-3.22,16.12-.74,3.73-1.53,7.46-1.57,11.29-.05,4.74,2.44,8.04,7.07,9.18,3.27,.8,6.53,.45,9.78-.2,.7-.14,.95-.49,1.02-1.16,.27-2.37,.56-4.74,.9-7.11,.08-.52-.06-.59-.51-.55Z"/><path class="cls-1" d="M296.21,45.51c-1.77,1.98-3.95,3.34-6.7,3.57-4.62,.39-8.17-2.11-9.34-6.57-.9-3.42-.54-6.83,.33-10.19,1.03-3.99,2.74-7.66,5.81-10.57,2.38-2.25,5.2-3.36,8.49-2.89,4.06,.59,6.56,3.32,7.25,7.65,.15,.94,.21,1.88,.21,2.83-.26,6.03-1.9,11.57-6.04,16.18Zm.9-34.88c-9.21-.71-16.74,2.62-22.4,9.84-4.16,5.31-5.97,11.45-6.13,18.46,.04,1.25,.13,2.85,.47,4.43,1.18,5.43,4.03,9.67,9.11,12.21,3.5,1.75,7.26,2.2,11.14,1.86,5.43-.47,10.3-2.39,14.31-6.01,7.59-6.85,10.68-15.49,9.57-25.53-.95-8.55-7.34-14.6-16.08-15.27Z"/><path class="cls-1" d="M389.16,34.92c-.82,3.69-2.33,7.08-4.76,10.01-2.9,3.5-7.09,5.3-11.59,3.61-2.79-1.05-4.27-3.25-5.06-5.97-.4-1.37-.57-2.77-.52-4.21,.17-5.28,1.58-10.18,4.73-14.51,1.69-2.33,3.83-4.17,6.74-4.83,5.49-1.26,9.67,1.47,10.86,7.01,.62,3,.25,5.95-.41,8.89Zm11.92-6.37c-.1-1.36-.25-2.71-.51-4.05-1.58-7.85-7.81-13.33-15.95-13.89-8.69-.6-16,2.3-21.55,8.98-5.69,6.83-7.85,14.76-6.42,23.48,1.02,6.22,4.55,10.77,10.58,13.16,3.85,1.53,7.87,1.69,11.91,.93,9.45-1.79,15.73-7.44,19.51-16.01,1.55-3.5,2.21-7.21,2.45-11.01-.39-.53-.39-1.06-.01-1.58Z"/><path class="cls-1" d="M269.19,20.15c-.68-5.57-4.89-9.4-10.52-9.61-6.38-.24-11.47,2.28-15.58,6.98-.6,.68-1.14,1.41-1.71,2.12-.07-.03-.13-.07-.2-.1,.28-2.37,.54-4.73,.84-7.1,.12-.98,.15-.97-.88-.97-2.63,0-5.26,.01-7.89-.02-.56,0-.8,.14-.86,.71-.52,5.12-1.64,10.14-2.62,15.2-1.84,9.5-3.62,19.02-5.44,28.52-.09,.45-.04,.6,.45,.59,3.27-.02,6.54-.01,9.81,0,.39,0,.54-.1,.62-.51,1.16-6.35,2.35-12.69,3.49-19.05,.86-4.79,2.39-9.3,5.59-13.1,1.62-1.93,3.51-3.54,5.99-4.24,3.46-.99,7.64-.11,7.87,5.47,.09,2.19-.15,4.36-.56,6.5-1.53,8.09-3.12,16.18-4.71,24.26-.12,.62,.05,.68,.59,.68,3.11-.02,6.22-.02,9.33,0,.5,0,.72-.1,.82-.65,1.61-8.37,3.26-16.74,4.88-25.11,.68-3.5,1.1-7,.67-10.57Z"/></g><g><path class="cls-1" d="M435.81,23.57c-1.64,0-2.9,.77-3.71,1.9v-1.64h-3.05v14.21c0,.37,.15,.72,.43,.96,.8,.67,1.67,1.25,2.62,1.71v-6.72c.83,1.11,2.05,1.84,3.71,1.84,3.05,0,5.36-2.52,5.36-6.13s-2.35-6.13-5.36-6.13Zm-.7,9.35c-1.71,0-3.01-1.28-3.01-3.22s1.3-3.22,3.01-3.22,2.97,1.3,2.97,3.22-1.28,3.22-2.97,3.22Z"/><path class="cls-1" d="M454.11,51.95h-.22s-4.47-.42-4.47-.42c-2.7-.25-5.45-.25-8.15-.01l-4.99,.44c-10.92,0-19.81-8.89-19.81-19.81s8.89-19.81,19.81-19.81h.15s2.25,.14,2.25,.14c4.59,.28,9.25,.27,13.83-.04l1.61-.1c10.92,0,19.81,8.89,19.81,19.81s-8.89,19.81-19.81,19.81Zm-17.91-34.88c-8.28,.04-15,6.79-15,15.07s6.71,15.02,14.97,15.07l4.67-.42c2.99-.27,6.02-.26,9.01,.01l4.36,.4c8.26-.06,14.97-6.8,14.97-15.07s-6.72-15.03-15-15.07l-1.37,.09c-4.79,.32-9.65,.34-14.44,.04l-2.17-.13Z"/><path class="cls-1" d="M446.35,28.44v-2.05h-3.05v11.74h3.05v-5.23c0-2.78,1.67-3.63,3.61-3.63,.34,0,.51,.02,.75,.04v-3.14c-.19-.02-.41-.04-.68-.04-1.67,0-2.95,.77-3.67,2.31Z"/><path class="cls-1" d="M457.99,26.01c-3.37,0-6.11,2.58-6.11,6.13s2.69,6.13,6.11,6.13,6.13-2.58,6.13-6.13-2.73-6.13-6.13-6.13Zm0,9.35c-1.71,0-3.03-1.28-3.03-3.22s1.32-3.22,3.03-3.22,3.03,1.3,3.03,3.22-1.32,3.22-3.03,3.22Z"/></g></g></svg>